<svg width="1200" height="2000" xmlns="http://www.w3.org/2000/svg">
<style>
.char {fill:#ec4899; font-size:32px; font-family:Courier;}
.cluster {fill:#a855f7; font-size:40px; font-family:Courier;}
.word {fill:#06b6d4; font-size:46px; font-family:Courier;}
.sentence {fill:#facc15; font-size:52px; font-family:Courier;}
.document {fill:white; font-size:64px; font-family:Courier;}
.label {fill:#9ca3af; font-size:22px; font-family:Courier;}
</style>
<text x="50" y="100" class="label">CHAR LAYER</text>
<polygon points="134.64101615137756,180.0 100.0,200.0 65.35898384862246,180.0 65.35898384862244,140.0 99.99999999999999,120.0 134.64101615137753,139.99999999999997" fill="none" stroke="#ec4899" />
<text x="90" y="170" class="char">◇</text>
<polygon points="254.64101615137756,180.0 220.0,200.0 185.35898384862247,180.0 185.35898384862244,140.0 220.0,120.0 254.64101615137753,139.99999999999997" fill="none" stroke="#ec4899" />
<text x="210" y="170" class="char">⊕</text>
<polygon points="374.6410161513775,180.0 340.0,200.0 305.3589838486225,180.0 305.3589838486224,140.0 340.0,120.0 374.6410161513775,139.99999999999997" fill="none" stroke="#ec4899" />
<text x="330" y="170" class="char">◉</text>
<polygon points="494.6410161513775,180.0 460.0,200.0 425.3589838486225,180.0 425.3589838486224,140.0 460.0,120.0 494.6410161513775,139.99999999999997" fill="none" stroke="#ec4899" />
<text x="450" y="170" class="char">◇</text>
<polygon points="614.6410161513776,180.0 580.0,200.0 545.3589838486224,180.0 545.3589838486224,140.0 580.0,120.0 614.6410161513776,139.99999999999997" fill="none" stroke="#ec4899" />
<text x="570" y="170" class="char">⊛</text>
<polygon points="734.6410161513776,180.0 700.0,200.0 665.3589838486224,180.0 665.3589838486224,140.0 700.0,120.0 734.6410161513776,139.99999999999997" fill="none" stroke="#ec4899" />
<text x="690" y="170" class="char">◉</text>
<polygon points="854.6410161513776,180.0 820.0,200.0 785.3589838486224,180.0 785.3589838486224,140.0 820.0,120.0 854.6410161513776,139.99999999999997" fill="none" stroke="#ec4899" />
<text x="810" y="170" class="char">⊛</text>
<polygon points="974.6410161513776,180.0 940.0,200.0 905.3589838486224,180.0 905.3589838486224,140.0 940.0,120.0 974.6410161513776,139.99999999999997" fill="none" stroke="#ec4899" />
<text x="930" y="170" class="char">▽</text>
<polygon points="1094.6410161513775,180.0 1060.0,200.0 1025.3589838486225,180.0 1025.3589838486225,140.0 1060.0,120.0 1094.6410161513775,139.99999999999997" fill="none" stroke="#ec4899" />
<text x="1050" y="170" class="char">⊙</text>
<polygon points="1214.6410161513775,180.0 1180.0,200.0 1145.3589838486225,180.0 1145.3589838486225,140.0 1180.0,120.0 1214.6410161513775,139.99999999999997" fill="none" stroke="#ec4899" />
<text x="1170" y="170" class="char">⊕</text>
<polygon points="1334.6410161513775,180.0 1300.0,200.0 1265.3589838486225,180.0 1265.3589838486225,140.0 1300.0,120.0 1334.6410161513775,139.99999999999997" fill="none" stroke="#ec4899" />
<text x="1290" y="170" class="char">⊗</text>
<polygon points="1454.6410161513775,180.0 1420.0,200.0 1385.3589838486225,180.0 1385.3589838486225,140.0 1420.0,120.0 1454.6410161513775,139.99999999999997" fill="none" stroke="#ec4899" />
<text x="1410" y="170" class="char">⊗</text>
<polygon points="1574.6410161513775,180.0 1540.0,200.0 1505.3589838486225,180.0 1505.3589838486225,140.0 1540.0,120.0 1574.6410161513775,139.99999999999997" fill="none" stroke="#ec4899" />
<text x="1530" y="170" class="char">◉</text>
<polygon points="1694.6410161513775,180.0 1660.0,200.0 1625.3589838486225,180.0 1625.3589838486225,140.0 1660.0,120.0 1694.6410161513775,139.99999999999997" fill="none" stroke="#ec4899" />
<text x="1650" y="170" class="char">⊗</text>
<text x="50" y="290" class="label">CLUSTER LAYER</text>
<polygon points="143.30127018922195,375.0 100.0,400.0 56.698729810778076,375.0 56.69872981077806,325.0 99.99999999999999,300.0 143.30127018922192,325.0" fill="none" stroke="#a855f7" />
<text x="90" y="360" class="cluster">⊗</text>
<polygon points="303.30127018922195,375.0 260.0,400.0 216.69872981077808,375.0 216.69872981077805,325.0 260.0,300.0 303.3012701892219,325.0" fill="none" stroke="#a855f7" />
<text x="250" y="360" class="cluster">◈</text>
<polygon points="463.30127018922195,375.0 420.0,400.0 376.6987298107781,375.0 376.69872981077805,325.0 420.0,300.0 463.3012701892219,325.0" fill="none" stroke="#a855f7" />
<text x="410" y="360" class="cluster">⊙</text>
<polygon points="623.3012701892219,375.0 580.0,400.0 536.6987298107781,375.0 536.6987298107781,325.0 580.0,300.0 623.3012701892219,325.0" fill="none" stroke="#a855f7" />
<text x="570" y="360" class="cluster">⊛</text>
<polygon points="783.3012701892219,375.0 740.0,400.0 696.6987298107781,375.0 696.6987298107781,325.0 740.0,300.0 783.3012701892219,325.0" fill="none" stroke="#a855f7" />
<text x="730" y="360" class="cluster">⊙</text>
<polygon points="943.3012701892219,375.0 900.0,400.0 856.6987298107781,375.0 856.6987298107781,325.0 900.0,300.0 943.3012701892219,325.0" fill="none" stroke="#a855f7" />
<text x="890" y="360" class="cluster">⊗</text>
<polygon points="1103.301270189222,375.0 1060.0,400.0 1016.6987298107781,375.0 1016.6987298107781,325.0 1060.0,300.0 1103.301270189222,325.0" fill="none" stroke="#a855f7" />
<text x="1050" y="360" class="cluster">⊕</text>
<text x="50" y="510" class="label">WORD LAYER</text>
<polygon points="251.96152422706632,600.0 200.0,630.0 148.03847577293368,600.0 148.03847577293368,540.0 200.0,510.0 251.96152422706632,540.0" fill="none" stroke="#06b6d4" />
<text x="190" y="585" class="word">⊗</text>
<text x="50" y="750" class="label">SENTENCE LAYER</text>
<polygon points="260.6217782649107,845.0 200.0,880.0 139.3782217350893,845.0 139.37822173508928,775.0 200.0,740.0 260.6217782649107,775.0" fill="none" stroke="#facc15" />
<text x="185" y="830" class="sentence">⊗</text>
<text x="50" y="1010" class="label">DOCUMENT SUPERGLYPH</text>
<rect x="120" y="1070" width="350" height="220" fill="black" stroke="white"/>
<text x="260" y="1200" class="document">⊗</text>
</svg>